<svg width="16" height="18" viewBox="0 0 16 18" fill="none" xmlns="http://www.w3.org/2000/svg">
<path d="M12.9998 2.7333C11.6737 1.40722 9.87514 0.662231 7.99978 0.662231C6.12441 0.662231 4.32586 1.40722 2.99978 2.7333C1.6737 4.05938 0.928711 5.85794 0.928711 7.7333C0.928711 9.60866 1.6737 11.4072 2.99978 12.7333L7.39145 17.1333C7.46891 17.2114 7.56108 17.2734 7.66263 17.3157C7.76418 17.358 7.8731 17.3798 7.98311 17.3798C8.09312 17.3798 8.20204 17.358 8.30359 17.3157C8.40514 17.2734 8.49731 17.2114 8.57478 17.1333L12.9998 12.6916C14.3203 11.3711 15.0622 9.58001 15.0622 7.71247C15.0622 5.84492 14.3203 4.05386 12.9998 2.7333ZM11.8081 11.5L7.99978 15.325L4.19145 11.5C3.43907 10.7469 2.92684 9.78767 2.71952 8.74354C2.51221 7.69941 2.6191 6.61725 3.0267 5.63387C3.4343 4.65048 4.12429 3.81001 5.00947 3.2187C5.89465 2.62739 6.93527 2.31178 7.99978 2.31178C9.06429 2.31178 10.1049 2.62739 10.9901 3.2187C11.8753 3.81001 12.5653 4.65048 12.9729 5.63387C13.3805 6.61725 13.4874 7.69941 13.28 8.74354C13.0727 9.78767 12.5605 10.7469 11.8081 11.5ZM5.49978 5.17497C4.82704 5.84978 4.44927 6.76377 4.44927 7.71663C4.44927 8.66949 4.82704 9.58349 5.49978 10.2583C5.99958 10.759 6.6361 11.1009 7.32949 11.2411C8.02287 11.3814 8.74224 11.3138 9.39734 11.0468C10.0524 10.7797 10.6141 10.3252 11.0118 9.74017C11.4096 9.15515 11.6257 8.46569 11.6331 7.7583C11.6369 7.28597 11.5459 6.81768 11.3655 6.38112C11.1852 5.94456 10.9191 5.5486 10.5831 5.21663C10.2528 4.87878 9.85901 4.60958 9.4243 4.42452C8.98958 4.23946 8.52256 4.1422 8.05011 4.13832C7.57766 4.13445 7.10911 4.22405 6.67142 4.40196C6.23373 4.57986 5.83555 4.84257 5.49978 5.17497ZM9.40811 9.07497C9.09231 9.39558 8.67495 9.59655 8.22738 9.64351C7.77982 9.69047 7.32983 9.5805 6.95437 9.33241C6.5789 9.08431 6.30128 8.7135 6.16895 8.28337C6.03663 7.85324 6.05782 7.3905 6.22891 6.97426C6.4 6.55803 6.71036 6.21415 7.10693 6.00141C7.5035 5.78868 7.96166 5.72031 8.40306 5.80798C8.84446 5.89565 9.2417 6.13393 9.52687 6.48207C9.81204 6.83022 9.96742 7.26661 9.96644 7.71663C9.95432 8.23102 9.73852 8.71957 9.36645 9.07497H9.40811Z" fill="#A2A3A3"/>
</svg>
