<svg width="20" height="20" viewBox="0 0 20 20" fill="none" xmlns="http://www.w3.org/2000/svg">
<path d="M15.8327 3.33301H4.16602C3.50297 3.33301 2.86709 3.5964 2.39825 4.06524C1.92941 4.53408 1.66602 5.16997 1.66602 5.83301V14.1663C1.66602 14.8294 1.92941 15.4653 2.39825 15.9341C2.86709 16.4029 3.50297 16.6663 4.16602 16.6663H15.8327C16.4957 16.6663 17.1316 16.4029 17.6005 15.9341C18.0693 15.4653 18.3327 14.8294 18.3327 14.1663V5.83301C18.3327 5.16997 18.0693 4.53408 17.6005 4.06524C17.1316 3.5964 16.4957 3.33301 15.8327 3.33301ZM15.491 4.99967L10.591 9.89967C10.5135 9.97778 10.4214 10.0398 10.3198 10.0821C10.2183 10.1244 10.1094 10.1462 9.99935 10.1462C9.88934 10.1462 9.78042 10.1244 9.67887 10.0821C9.57732 10.0398 9.48515 9.97778 9.40768 9.89967L4.50768 4.99967H15.491ZM16.666 14.1663C16.666 14.3874 16.5782 14.5993 16.4219 14.7556C16.2657 14.9119 16.0537 14.9997 15.8327 14.9997H4.16602C3.945 14.9997 3.73304 14.9119 3.57676 14.7556C3.42048 14.5993 3.33268 14.3874 3.33268 14.1663V6.17467L8.23268 11.0747C8.70143 11.5428 9.33685 11.8058 9.99935 11.8058C10.6619 11.8058 11.2973 11.5428 11.766 11.0747L16.666 6.17467V14.1663Z" fill="#A2A3A3"/>
</svg>
