<svg width="20" height="20" viewBox="0 0 20 20" fill="none" xmlns="http://www.w3.org/2000/svg">
<path d="M17.841 7.20043C17.841 7.20043 17.841 7.20043 17.841 7.15876C17.2538 5.55562 16.1884 4.1715 14.7889 3.19365C13.3894 2.2158 11.7233 1.69141 10.016 1.69141C8.30872 1.69141 6.64263 2.2158 5.24311 3.19365C3.84359 4.1715 2.77818 5.55562 2.19102 7.15876C2.19102 7.15876 2.19102 7.15876 2.19102 7.20043C1.53529 9.00951 1.53529 10.9913 2.19102 12.8004C2.19102 12.8004 2.19102 12.8004 2.19102 12.8421C2.77818 14.4452 3.84359 15.8294 5.24311 16.8072C6.64263 17.7851 8.30872 18.3095 10.016 18.3095C11.7233 18.3095 13.3894 17.7851 14.7889 16.8072C16.1884 15.8294 17.2538 14.4452 17.841 12.8421C17.841 12.8421 17.841 12.8421 17.841 12.8004C18.4967 10.9913 18.4967 9.00951 17.841 7.20043ZM3.54935 11.6671C3.26037 10.5748 3.26037 9.42608 3.54935 8.33376H5.09935C4.96604 9.44088 4.96604 10.56 5.09935 11.6671H3.54935ZM4.23268 13.3338H5.39935C5.59495 14.077 5.87453 14.7955 6.23268 15.4754C5.41543 14.9187 4.73226 14.1871 4.23268 13.3338ZM5.39935 6.6671H4.23268C4.72507 5.81633 5.39951 5.08498 6.20768 4.52543C5.85814 5.20647 5.58697 5.92495 5.39935 6.6671ZM9.16602 16.4171C8.14249 15.666 7.42364 14.5715 7.14102 13.3338H9.16602V16.4171ZM9.16602 11.6671H6.78268C6.62717 10.5614 6.62717 9.43943 6.78268 8.33376H9.16602V11.6671ZM9.16602 6.6671H7.14102C7.42364 5.4294 8.14249 4.33486 9.16602 3.58376V6.6671ZM15.766 6.6671H14.5993C14.4038 5.9239 14.1242 5.20538 13.766 4.52543C14.5833 5.08215 15.2664 5.81371 15.766 6.6671ZM10.8327 3.58376C11.8562 4.33486 12.5751 5.4294 12.8577 6.6671H10.8327V3.58376ZM10.8327 16.4171V13.3338H12.8577C12.5751 14.5715 11.8562 15.666 10.8327 16.4171ZM13.216 11.6671H10.8327V8.33376H13.216C13.3715 9.43943 13.3715 10.5614 13.216 11.6671ZM13.791 15.4754C14.1492 14.7955 14.4287 14.077 14.6243 13.3338H15.791C15.2914 14.1871 14.6083 14.9187 13.791 15.4754ZM16.4493 11.6671H14.8993C14.9671 11.1141 15.0005 10.5575 14.9993 10.0004C15.0003 9.44335 14.9669 8.88674 14.8993 8.33376H16.4493C16.7383 9.42608 16.7383 10.5748 16.4493 11.6671Z" fill="#A2A3A3"/>
</svg>
