<svg width="32" height="32" viewBox="0 0 32 32" fill="none" xmlns="http://www.w3.org/2000/svg">
<path fill-rule="evenodd" clip-rule="evenodd" d="M16 32C24.8366 32 32 24.8366 32 16C32 7.16344 24.8366 0 16 0C7.16344 0 0 7.16344 0 16C0 24.8366 7.16344 32 16 32ZM12 9.80952C12 9.28354 12.4477 8.85714 13 8.85714H19H22.874C22.4299 7.21407 20.8638 6 19 6H13C10.7909 6 9 7.70558 9 9.80952V20.2857H12V9.80952ZM13 26C11.1362 26 9.57006 24.7859 9.12602 23.1429H13H19C19.5523 23.1429 20 22.7165 20 22.1905V11.7143H23V22.1905C23 24.2944 21.2091 26 19 26H13Z" fill="#A2A3A3"/>
</svg>
