<svg width="32" height="32" viewBox="0 0 32 32" fill="none" xmlns="http://www.w3.org/2000/svg">
<path fill-rule="evenodd" clip-rule="evenodd" d="M16 0C7.16347 0 0 7.16347 0 16C0 24.8365 7.16347 32 16 32C24.8365 32 32 24.8365 32 16C32 7.16347 24.8365 0 16 0ZM12.4822 7.5182C13.3924 7.4768 13.6833 7.46667 16.0008 7.46667H15.9981C18.3164 7.46667 18.6061 7.4768 19.5164 7.5182C20.4249 7.5598 21.0453 7.70367 21.5893 7.91467C22.1511 8.13247 22.6257 8.424 23.1004 8.89867C23.5751 9.373 23.8667 9.84907 24.0853 10.4103C24.2951 10.9529 24.4391 11.573 24.4818 12.4815C24.5227 13.3917 24.5333 13.6825 24.5333 16.0001C24.5333 18.3176 24.5227 18.6077 24.4818 19.518C24.4391 20.4261 24.2951 21.0463 24.0853 21.5891C23.8667 22.1502 23.5751 22.6263 23.1004 23.1006C22.6263 23.5753 22.1509 23.8675 21.5899 24.0855C21.0469 24.2965 20.4261 24.4403 19.5177 24.4819C18.6074 24.5234 18.3175 24.5335 15.9997 24.5335C13.6824 24.5335 13.3917 24.5234 12.4815 24.4819C11.5732 24.4403 10.9529 24.2965 10.41 24.0855C9.84907 23.8675 9.373 23.5753 8.89887 23.1006C8.42433 22.6263 8.1328 22.1502 7.91467 21.5889C7.7038 21.0463 7.56 20.4263 7.5182 19.5178C7.477 18.6076 7.46667 18.3176 7.46667 16.0001C7.46667 13.6825 7.47733 13.3915 7.51807 12.4813C7.55893 11.5732 7.70293 10.9529 7.91447 10.4101C8.13313 9.84907 8.42473 9.373 8.8994 8.89867C9.37373 8.4242 9.8498 8.1326 10.4111 7.91467C10.9537 7.70367 11.5737 7.5598 12.4822 7.5182Z" fill="#A2A3A3"/>
<path fill-rule="evenodd" clip-rule="evenodd" d="M15.2355 9.00445C15.3841 9.00425 15.544 9.00432 15.7166 9.00439L16.001 9.00445C18.2794 9.00445 18.5495 9.01265 19.4492 9.05352C20.2812 9.09159 20.7328 9.23059 21.0336 9.34739C21.4318 9.50205 21.7157 9.68699 22.0142 9.98565C22.3129 10.2843 22.4978 10.5688 22.6528 10.967C22.7696 11.2675 22.9088 11.719 22.9467 12.551C22.9876 13.4506 22.9964 13.7208 22.9964 15.9981C22.9964 18.2755 22.9876 18.5457 22.9467 19.4453C22.9086 20.2773 22.7696 20.7289 22.6528 21.0293C22.4982 21.4275 22.3129 21.7111 22.0142 22.0096C21.7156 22.3083 21.432 22.4932 21.0336 22.6479C20.7332 22.7652 20.2812 22.9039 19.4492 22.9419C18.5496 22.9828 18.2794 22.9917 16.001 22.9917C13.7224 22.9917 13.4524 22.9828 12.5528 22.9419C11.7208 22.9035 11.2692 22.7645 10.9682 22.6477C10.57 22.493 10.2856 22.3081 9.9869 22.0094C9.68824 21.7107 9.50337 21.427 9.3483 21.0286C9.2315 20.7282 9.0923 20.2766 9.05444 19.4446C9.01357 18.5451 9.00537 18.2748 9.00537 15.996C9.00537 13.7173 9.01357 13.4485 9.05444 12.5489C9.0925 11.7169 9.2315 11.2653 9.3483 10.9645C9.50297 10.5663 9.68824 10.2819 9.9869 9.98319C10.2856 9.68452 10.57 9.49959 10.9682 9.34459C11.269 9.22725 11.7208 9.08859 12.5528 9.05032C13.34 9.01479 13.6451 9.00412 15.2355 9.00232V9.00445ZM20.5561 10.4214C19.9908 10.4214 19.532 10.8795 19.532 11.4451C19.532 12.0104 19.9908 12.4691 20.5561 12.4691C21.1214 12.4691 21.5801 12.0104 21.5801 11.4451C21.5801 10.8797 21.1214 10.4211 20.5561 10.4211V10.4214ZM11.6188 16.0001C11.6188 13.5801 13.5808 11.6179 16.0008 11.6179C18.421 11.6179 20.3826 13.58 20.3826 16.0001C20.3826 18.4203 18.4211 20.3815 16.001 20.3815C13.5809 20.3815 11.6188 18.4203 11.6188 16.0001Z" fill="#A2A3A3"/>
<path d="M16.0007 13.1556C17.5716 13.1556 18.8452 14.4291 18.8452 16.0001C18.8452 17.571 17.5716 18.8446 16.0007 18.8446C14.4297 18.8446 13.1562 17.571 13.1562 16.0001C13.1562 14.4291 14.4297 13.1556 16.0007 13.1556Z" fill="#A2A3A3"/>
</svg>
