<svg width="18" height="18" viewBox="0 0 18 18" fill="none" xmlns="http://www.w3.org/2000/svg">
<path d="M15.1998 9.83331C15.0165 9.83331 14.8248 9.77497 14.6415 9.73331C14.2702 9.65149 13.9054 9.54287 13.5498 9.40831C13.1632 9.26766 12.7383 9.27497 12.3568 9.42881C11.9752 9.58265 11.6641 9.87217 11.4832 10.2416L11.2998 10.6166C10.4882 10.1651 9.74233 9.60433 9.08317 8.94997C8.42881 8.29082 7.86803 7.54497 7.41651 6.7333L7.76651 6.49997C8.13598 6.31907 8.42549 6.00791 8.57933 5.62638C8.73318 5.24485 8.74048 4.8199 8.59984 4.4333C8.46753 4.07699 8.35895 3.7123 8.27484 3.34164C8.23317 3.1583 8.19984 2.96664 8.17484 2.77497C8.07364 2.18799 7.76619 1.65642 7.30786 1.276C6.84952 0.895585 6.27042 0.691312 5.67484 0.699971H3.17484C2.8157 0.696599 2.46005 0.770649 2.1321 0.91708C1.80415 1.06351 1.5116 1.27888 1.27437 1.54854C1.03713 1.81819 0.860785 2.1358 0.75733 2.47973C0.653874 2.82367 0.625739 3.18585 0.67484 3.54164C1.11879 7.03279 2.7132 10.2765 5.20622 12.7605C7.69924 15.2445 10.9488 16.8271 14.4415 17.2583H14.7582C15.3727 17.2592 15.966 17.0337 16.4248 16.625C16.6885 16.3892 16.8991 16.1001 17.0427 15.7769C17.1864 15.4537 17.2598 15.1037 17.2582 14.75V12.25C17.248 11.6711 17.0372 11.1138 16.6618 10.673C16.2864 10.2323 15.7697 9.93549 15.1998 9.83331ZM15.6165 14.8333C15.6164 14.9516 15.591 15.0686 15.5422 15.1763C15.4933 15.2841 15.4221 15.3802 15.3332 15.4583C15.2403 15.5391 15.1315 15.5995 15.0137 15.6354C14.896 15.6713 14.772 15.6819 14.6498 15.6666C11.5289 15.2665 8.63004 13.8387 6.41044 11.6085C4.19084 9.37838 2.77685 6.47275 2.39151 3.34997C2.37824 3.2279 2.38987 3.10441 2.42567 2.98696C2.46148 2.86951 2.52073 2.76054 2.59984 2.66664C2.67793 2.57775 2.77406 2.50651 2.88182 2.45765C2.98959 2.4088 3.10652 2.38345 3.22484 2.3833H5.72484C5.91863 2.37899 6.10786 2.44237 6.25996 2.56253C6.41206 2.68269 6.51751 2.85211 6.55817 3.04164C6.59151 3.26942 6.63317 3.49442 6.68317 3.71664C6.77944 4.15593 6.90756 4.58762 7.06651 5.00831L5.89984 5.54997C5.80009 5.59574 5.71036 5.66076 5.6358 5.7413C5.56125 5.82184 5.50334 5.91632 5.4654 6.0193C5.42746 6.12228 5.41023 6.23175 5.41471 6.34141C5.41919 6.45107 5.44529 6.55876 5.49151 6.6583C6.69084 9.22727 8.75588 11.2923 11.3248 12.4916C11.5277 12.575 11.7553 12.575 11.9582 12.4916C12.0621 12.4545 12.1576 12.397 12.2391 12.3226C12.3207 12.2482 12.3866 12.1584 12.4332 12.0583L12.9498 10.8916C13.3806 11.0457 13.8203 11.1737 14.2665 11.275C14.4887 11.325 14.7137 11.3666 14.9415 11.4C15.131 11.4406 15.3005 11.5461 15.4206 11.6982C15.5408 11.8503 15.6042 12.0395 15.5998 12.2333L15.6165 14.8333Z" fill="#A2A3A3"/>
</svg>
