<svg width="20" height="20" viewBox="0 0 20 20" fill="none" xmlns="http://www.w3.org/2000/svg">
<path d="M5.34874 10.7353L11.4801 16.3716C11.5808 16.4651 11.7006 16.5393 11.8326 16.59C11.9646 16.6406 12.1062 16.6667 12.2492 16.6667C12.3922 16.6667 12.5338 16.6406 12.6658 16.59C12.7978 16.5393 12.9176 16.4651 13.0183 16.3716C13.2201 16.1847 13.3333 15.9319 13.3333 15.6683C13.3333 15.4048 13.2201 15.1519 13.0183 14.965L7.65612 9.97716L13.0183 5.03919C13.2201 4.85228 13.3333 4.59945 13.3333 4.3359C13.3333 4.07236 13.2201 3.81952 13.0183 3.63261C12.918 3.53836 12.7984 3.46337 12.6663 3.412C12.5343 3.36062 12.3925 3.33389 12.2492 3.33334C12.1059 3.33389 11.9641 3.36062 11.8321 3.412C11.7 3.46337 11.5804 3.53836 11.4801 3.63261L5.34874 9.26889C5.23878 9.3623 5.15103 9.47568 5.09101 9.60187C5.03099 9.72806 5 9.86434 5 10.0021C5 10.1399 5.03099 10.2761 5.09101 10.4023C5.15103 10.5285 5.23878 10.6419 5.34874 10.7353Z" fill="#6E7171"/>
</svg>
