<svg width="222" height="32" viewBox="0 0 222 32" fill="none" xmlns="http://www.w3.org/2000/svg">
<path d="M20.742 2.64656L18.4172 8.33558C18.2901 8.65963 17.9087 8.82166 17.5636 8.69564C17.2911 8.58762 17.1458 8.33558 17.164 8.06553L17.4728 1.94443C17.5272 1.00826 18.3264 0.306139 19.2527 0.342145C20.1971 0.396155 20.9054 1.1883 20.8691 2.10646C20.851 2.28649 20.7965 2.46653 20.742 2.64656Z" fill="#F16037"/>
<path fill-rule="evenodd" clip-rule="evenodd" d="M26.4626 0H30.2585C30.6762 0 31.0758 0.414074 31.0577 0.792142C31.0577 1.23836 30.8431 1.42281 30.6972 1.54824C30.69 1.55439 30.683 1.56039 30.6762 1.56628L21.5951 10.2618C21.3045 10.5679 20.8141 10.5679 20.5235 10.2618C20.2874 10.0278 20.251 9.68573 20.3963 9.39768C20.3963 9.39768 24.7371 1.35024 25.0822 0.720129C25.4273 0.0900161 26.172 0 26.4626 0ZM32.0747 15.8786C32.0747 24.6642 24.9006 31.7754 16.0374 31.7754C7.1923 31.7754 0 24.6642 0 15.8786C0 7.86717 5.97542 1.24198 13.7489 0.143783C13.783 0.135342 13.817 0.130859 13.8492 0.126622C13.8857 0.121822 13.9198 0.117339 13.9487 0.107777C14.203 0.12578 14.4209 0.287809 14.4936 0.539854L14.5117 0.773896L15.1293 7.92118L15.1474 8.11921C15.1293 8.37126 14.9476 8.56929 14.7115 8.6413C14.6752 8.6413 14.6389 8.6413 14.6025 8.65931C11.188 9.32543 8.5908 12.314 8.5908 15.8966C8.5908 19.9653 11.9145 23.2779 16.0374 23.2779C20.1421 23.2779 23.4658 19.9833 23.4839 15.9326V15.9146V15.8786V15.8426C23.5021 15.5906 23.6656 15.3925 23.9017 15.3205L24.0107 15.3025L31.2211 13.8262L31.3846 13.7902H31.4209C31.6933 13.7902 31.9294 13.9703 32.0021 14.2403C32.0021 14.2654 32.006 14.2904 32.0102 14.3173C32.015 14.3483 32.0203 14.3817 32.0203 14.4203C32.0566 14.8704 32.0747 15.3745 32.0747 15.8786ZM21.1228 15.8788C21.1228 18.6513 18.8525 20.9197 16.0555 20.9197C13.2585 20.9197 10.9701 18.6693 10.9701 15.8788C10.9701 13.1063 13.2404 10.8379 16.0555 10.8379C18.8525 10.8559 21.1228 13.1063 21.1228 15.8788Z" fill="url(#paint0_linear_9937_14553)"/>
<path d="M29.4406 11.2699L23.556 13.1602C23.2109 13.2683 22.8476 13.0882 22.7387 12.7462C22.6479 12.4761 22.7568 12.1881 22.9566 12.026L27.8786 8.31737C28.6233 7.75927 29.6949 7.90329 30.2579 8.64142C30.8209 9.37956 30.6756 10.4417 29.931 10.9998C29.7857 11.1259 29.604 11.2159 29.4406 11.2699Z" fill="#F16037"/>
<path d="M49.4817 23.0278H52.9873C52.5695 24.3835 51.7522 25.5042 50.5352 26.3537C49.3182 27.2033 47.9923 27.6371 46.5392 27.6371C45.6673 27.6371 44.8136 27.4745 43.9599 27.131C43.1062 26.7876 42.3615 26.2995 41.6894 25.6849C41.0355 25.0523 40.5088 24.3112 40.1637 23.4435C39.8004 22.5759 39.6188 21.654 39.6188 20.696C39.6188 18.816 40.2908 17.2434 41.635 15.9239C42.9791 14.6224 44.6138 13.9717 46.521 13.9717C47.9741 13.9717 49.3001 14.4055 50.5352 15.2732C51.7703 16.1408 52.5695 17.2615 52.9691 18.6353H49.4635C49.1184 18.0749 48.7007 17.6592 48.2284 17.388C47.7561 17.1169 47.1567 16.9904 46.4847 16.9904C45.3585 16.9904 44.4685 17.3519 43.7783 18.0569C43.0881 18.7618 42.7611 19.6656 42.7611 20.7502C42.7611 21.8709 43.1244 22.8108 43.8509 23.5339C44.5775 24.275 45.5038 24.6365 46.6481 24.6365C47.2294 24.6365 47.7561 24.4919 48.2647 24.2027C48.7552 23.8954 49.1729 23.5158 49.4817 23.0278Z" fill="#6E7171"/>
<path d="M61.1066 13.9717C62.9956 13.9717 64.594 14.6396 65.9018 15.9755C67.2096 17.3113 67.8816 18.936 67.8816 20.8315C67.8816 22.7089 67.2096 24.3155 65.8473 25.6514C64.485 26.9873 62.8684 27.6371 60.9612 27.6371C59.0904 27.6371 57.4738 26.9692 56.1297 25.6153C54.7674 24.2794 54.0953 22.6728 54.0953 20.8134C54.0953 18.8999 54.7674 17.2752 56.1297 15.9394C57.492 14.6396 59.1449 13.9717 61.1066 13.9717ZM60.9794 16.9864C60.489 16.9864 59.9986 17.0947 59.5445 17.2933C59.0904 17.4918 58.6726 17.7807 58.3275 18.1417C57.6191 18.8458 57.2558 19.7484 57.2558 20.8315C57.2558 21.8785 57.6191 22.7811 58.3275 23.5213C59.0359 24.2614 59.9259 24.6224 60.9976 24.6224C62.0874 24.6224 62.9956 24.2614 63.704 23.5393C64.4124 22.8172 64.7756 21.9146 64.7756 20.8315C64.7756 19.7664 64.4124 18.8638 63.6858 18.1056C62.9411 17.3474 62.0511 16.9864 60.9794 16.9864Z" fill="#6E7171"/>
<path d="M56.6923 12.883L59.6893 9.69043H62.1596L65.1929 12.883H62.1596L60.9063 11.4039L59.4532 12.883H56.6923Z" fill="#6E7171"/>
<path d="M78.8879 23.0278H82.3936C81.9758 24.3835 81.1584 25.5042 79.9415 26.3537C78.7245 27.2033 77.3985 27.6371 75.9454 27.6371C75.0736 27.6371 74.2199 27.4745 73.3662 27.131C72.5125 26.7876 71.7678 26.2995 71.0957 25.6849C70.4418 25.0523 69.915 24.3112 69.5699 23.4435C69.2067 22.5759 69.025 21.654 69.025 20.696C69.025 18.816 69.6971 17.2434 71.0412 15.9239C72.3853 14.6224 74.0201 13.9717 75.9273 13.9717C77.3804 13.9717 78.7063 14.4055 79.9415 15.2732C81.1766 16.1408 81.9758 17.2615 82.3754 18.6353H78.8698C78.5247 18.0749 78.1069 17.6592 77.6347 17.388C77.1442 17.1169 76.563 16.9904 75.8909 16.9904C74.7648 16.9904 73.8748 17.3519 73.1845 18.0569C72.4943 18.7618 72.1492 19.6656 72.1492 20.7502C72.1492 21.8709 72.5125 22.8108 73.239 23.5339C73.9656 24.275 74.8919 24.6365 76.0362 24.6365C76.6175 24.6365 77.1624 24.4919 77.6528 24.2027C78.1796 23.8954 78.5792 23.5158 78.8879 23.0278Z" fill="#6E7171"/>
<path d="M99.8864 23.0278H103.392C102.974 24.3835 102.157 25.5042 100.94 26.3537C99.7229 27.2033 98.3969 27.6371 96.9438 27.6371C96.072 27.6371 95.2183 27.4745 94.3646 27.131C93.5109 26.7876 92.7662 26.2995 92.0941 25.6849C91.422 25.0523 90.9135 24.3112 90.5684 23.4435C90.2051 22.5759 90.0234 21.654 90.0234 20.696C90.0234 18.816 90.6955 17.2434 92.0396 15.9239C93.3837 14.6224 95.0185 13.9717 96.9257 13.9717C98.3788 13.9717 99.7047 14.4055 100.94 15.2732C102.175 16.1408 102.974 17.2615 103.374 18.6353H99.8682C99.5231 18.0749 99.1235 17.6592 98.6331 17.388C98.1426 17.1169 97.5614 16.9904 96.8893 16.9904C95.7632 16.9904 94.8732 17.3519 94.1829 18.0569C93.4927 18.7618 93.1476 19.6656 93.1476 20.7502C93.1476 21.8709 93.5109 22.8108 94.2374 23.5339C94.964 24.275 95.8903 24.6365 97.0347 24.6365C97.6159 24.6365 98.1608 24.4919 98.6512 24.2027C99.1598 23.8954 99.5776 23.5158 99.8864 23.0278Z" fill="#6E7171"/>
<path d="M111.566 13.9717C113.455 13.9717 115.053 14.6396 116.361 15.9755C117.669 17.3113 118.341 18.936 118.341 20.8315C118.341 22.7089 117.669 24.3155 116.307 25.6514C114.963 26.9873 113.328 27.6371 111.421 27.6371C109.55 27.6371 107.933 26.9692 106.589 25.6153C105.227 24.2794 104.555 22.6728 104.555 20.8134C104.555 18.8999 105.227 17.2752 106.589 15.9394C107.951 14.6396 109.604 13.9717 111.566 13.9717ZM111.421 16.9864C110.93 16.9864 110.44 17.0947 109.986 17.2933C109.532 17.4918 109.114 17.7807 108.769 18.1417C108.06 18.8458 107.697 19.7484 107.697 20.8315C107.697 21.8785 108.06 22.7811 108.769 23.5213C109.477 24.2614 110.367 24.6224 111.439 24.6224C112.529 24.6224 113.437 24.2614 114.145 23.5393C114.872 22.8172 115.217 21.9146 115.217 20.8315C115.217 19.7664 114.854 18.8638 114.127 18.1056C113.4 17.3474 112.51 16.9864 111.421 16.9864Z" fill="#6E7171"/>
<path d="M107.152 12.883L110.149 9.69043H112.619L115.652 12.883H112.619L111.347 11.4039L109.912 12.883H107.152Z" fill="#6E7171"/>
<path d="M129.293 23.0278H132.799C132.381 24.3835 131.564 25.5042 130.347 26.3537C129.13 27.2033 127.804 27.6371 126.351 27.6371C125.479 27.6371 124.625 27.4745 123.771 27.131C122.918 26.7876 122.173 26.2995 121.501 25.6849C120.829 25.0523 120.339 24.3112 119.975 23.4435C119.612 22.5759 119.448 21.654 119.448 20.696C119.448 18.816 120.121 17.2434 121.465 15.9239C122.809 14.6224 124.444 13.9717 126.351 13.9717C127.804 13.9717 129.13 14.4055 130.365 15.2732C131.6 16.1408 132.399 17.2615 132.799 18.6353H129.293C128.948 18.0749 128.53 17.6592 128.058 17.388C127.568 17.1169 126.986 16.9904 126.314 16.9904C125.188 16.9904 124.298 17.3519 123.608 18.0569C122.918 18.7618 122.573 19.6656 122.573 20.7502C122.573 21.8709 122.936 22.8108 123.662 23.5339C124.389 24.275 125.315 24.6365 126.46 24.6365C127.041 24.6365 127.586 24.4919 128.076 24.2027C128.585 23.8954 128.984 23.5158 129.293 23.0278Z" fill="#6E7171"/>
<path d="M64.1948 6.3353L65.2846 3.50351C65.5025 2.94437 65.6842 2.56559 65.8477 2.34915C66.0111 2.13271 66.2109 1.98841 66.4834 1.91627C66.9557 1.79001 67.2644 1.97038 67.3734 2.4213C67.4642 2.80007 67.2281 3.35921 66.6469 4.08069L64.5399 6.75014C64.3946 6.93051 64.2856 7.0207 64.2311 7.03873C64.1221 7.05677 64.0676 7.03873 64.0313 6.93051C63.995 6.8764 64.0494 6.678 64.1948 6.3353Z" fill="#4FBA69"/>
<path d="M65.5386 7.65141L67.5003 5.32465C67.8817 4.87373 68.1905 4.56711 68.4085 4.40477C68.6264 4.24244 68.8807 4.1703 69.1532 4.20637C69.6436 4.24244 69.8616 4.49496 69.8252 4.98195C69.7889 5.37877 69.3893 5.81165 68.5901 6.31668L65.7202 8.15644C65.5204 8.2827 65.3933 8.33681 65.3206 8.33681C65.2116 8.33681 65.1572 8.2827 65.1753 8.17448C65.1753 8.10233 65.3025 7.94 65.5386 7.65141Z" fill="#4FBA69"/>
<path d="M66.7559 9.02336L69.4442 7.59844C69.9709 7.32789 70.3705 7.14752 70.6248 7.09341C70.8973 7.02126 71.1516 7.05734 71.3877 7.1836C71.8236 7.40004 71.9326 7.7247 71.7146 8.15759C71.533 8.50029 70.9881 8.77084 70.0617 8.93317L66.7014 9.56446C66.4835 9.60054 66.3381 9.61857 66.2655 9.5825C66.1747 9.52839 66.1383 9.47428 66.1928 9.38409C66.2473 9.31195 66.429 9.20372 66.7559 9.02336Z" fill="#4FBA69"/>
<path d="M114.599 6.37121L115.689 3.52138C115.907 2.96224 116.088 2.58347 116.252 2.34899C116.415 2.13255 116.615 1.98825 116.888 1.9161C117.36 1.78985 117.669 1.97021 117.796 2.43917C117.887 2.81795 117.65 3.37709 117.069 4.1166L114.962 6.80409C114.817 6.98446 114.708 7.07465 114.653 7.09268C114.544 7.11072 114.49 7.09268 114.454 6.98446C114.399 6.91231 114.454 6.71391 114.599 6.37121Z" fill="#F16037"/>
<path d="M115.943 7.68792L117.923 5.34313C118.304 4.89221 118.613 4.58558 118.831 4.42325C119.049 4.26092 119.303 4.18877 119.575 4.20681C120.066 4.24288 120.302 4.51343 120.248 4.98239C120.211 5.3792 119.812 5.83012 118.994 6.33516L116.106 8.19295C115.906 8.31921 115.779 8.37332 115.707 8.37332C115.598 8.37332 115.543 8.31921 115.561 8.21099C115.579 8.15688 115.707 7.97651 115.943 7.68792Z" fill="#F16037"/>
<path d="M117.178 9.07707L119.885 7.65215C120.411 7.3816 120.811 7.20123 121.084 7.14712C121.356 7.07498 121.61 7.11105 121.846 7.23731C122.282 7.45375 122.391 7.77841 122.192 8.2113C122.01 8.554 121.465 8.82455 120.52 8.98688L117.142 9.61817C116.906 9.65425 116.761 9.67228 116.706 9.63621C116.615 9.5821 116.579 9.50995 116.633 9.4378C116.67 9.36566 116.851 9.2394 117.178 9.07707Z" fill="#F16037"/>
<line x1="142.8" y1="12" x2="142.8" y2="28" stroke="#E3E3E3" stroke-width="0.8"/>
<path d="M152.757 19.8576C152.757 18.9424 152.915 18.0976 153.232 17.3232C153.549 16.5488 153.983 15.8859 154.534 15.3344C155.086 14.7829 155.731 14.3547 156.47 14.0496C157.221 13.7328 158.025 13.5744 158.882 13.5744C160.219 13.5744 161.387 13.8971 162.384 14.5424C163.381 15.176 164.109 16.0912 164.566 17.288H162.648C162.308 16.5488 161.821 15.9797 161.187 15.5808C160.554 15.1819 159.785 14.9824 158.882 14.9824C158.236 14.9824 157.638 15.0939 157.086 15.3168C156.547 15.5397 156.077 15.8624 155.678 16.2848C155.279 16.7072 154.963 17.2235 154.728 17.8336C154.505 18.432 154.394 19.1067 154.394 19.8576C154.394 20.6085 154.505 21.2832 154.728 21.8816C154.963 22.48 155.279 22.9904 155.678 23.4128C156.077 23.8352 156.547 24.1579 157.086 24.3808C157.638 24.6037 158.236 24.7152 158.882 24.7152C159.785 24.7152 160.554 24.5216 161.187 24.1344C161.821 23.7355 162.308 23.1664 162.648 22.4272H164.566C164.109 23.6123 163.381 24.5216 162.384 25.1552C161.387 25.7888 160.219 26.1056 158.882 26.1056C158.025 26.1056 157.221 25.9531 156.47 25.648C155.731 25.3429 155.086 24.9147 154.534 24.3632C153.983 23.8117 153.549 23.1547 153.232 22.392C152.915 21.6176 152.757 20.7728 152.757 19.8576ZM166.352 21.1424C166.352 20.3915 166.469 19.7109 166.704 19.1008C166.939 18.4907 167.261 17.9744 167.672 17.552C168.083 17.1179 168.564 16.7835 169.115 16.5488C169.679 16.3141 170.283 16.1968 170.928 16.1968C171.374 16.1968 171.785 16.2496 172.16 16.3552C172.547 16.4608 172.888 16.6016 173.181 16.7776C173.486 16.9536 173.75 17.1589 173.973 17.3936C174.196 17.6283 174.378 17.8688 174.519 18.1152V16.3552H176.138V26H174.519V24.2048C174.378 24.4629 174.19 24.7093 173.955 24.944C173.732 25.1787 173.468 25.3899 173.163 25.5776C172.858 25.7536 172.518 25.8944 172.143 26C171.767 26.1056 171.356 26.1584 170.911 26.1584C170.265 26.1584 169.667 26.0411 169.115 25.8064C168.564 25.56 168.083 25.2197 167.672 24.7856C167.261 24.3397 166.939 23.8117 166.704 23.2016C166.469 22.5797 166.352 21.8933 166.352 21.1424ZM174.519 21.16C174.519 20.5968 174.431 20.0981 174.255 19.664C174.079 19.2181 173.838 18.8427 173.533 18.5376C173.24 18.2325 172.893 17.9979 172.495 17.8336C172.096 17.6693 171.679 17.5872 171.245 17.5872C170.799 17.5872 170.377 17.6693 169.978 17.8336C169.591 17.9861 169.25 18.2149 168.957 18.52C168.664 18.8133 168.429 19.1829 168.253 19.6288C168.077 20.0747 167.989 20.5792 167.989 21.1424C167.989 21.7056 168.077 22.216 168.253 22.6736C168.429 23.1195 168.664 23.4949 168.957 23.8C169.25 24.1051 169.591 24.3397 169.978 24.504C170.377 24.6683 170.799 24.7504 171.245 24.7504C171.679 24.7504 172.096 24.6741 172.495 24.5216C172.893 24.3573 173.24 24.1227 173.533 23.8176C173.838 23.5008 174.079 23.1195 174.255 22.6736C174.431 22.2277 174.519 21.7232 174.519 21.16ZM180.446 26H178.844V16.3552H180.446V17.9216C180.716 17.3819 181.109 16.9595 181.625 16.6544C182.141 16.3376 182.787 16.1792 183.561 16.1792V17.8336H183.139C182.751 17.8336 182.394 17.8805 182.065 17.9744C181.737 18.0683 181.449 18.2325 181.203 18.4672C180.968 18.6901 180.78 18.9893 180.639 19.3648C180.51 19.7285 180.446 20.192 180.446 20.7552V26ZM189.511 17.552C189.123 17.552 188.754 17.6165 188.402 17.7456C188.05 17.8747 187.739 18.0624 187.469 18.3088C187.199 18.5552 186.976 18.8603 186.8 19.224C186.624 19.5877 186.513 20.0043 186.466 20.4736H192.555C192.555 20.0043 192.473 19.5877 192.309 19.224C192.157 18.8603 191.939 18.5552 191.658 18.3088C191.376 18.0624 191.048 17.8747 190.672 17.7456C190.309 17.6165 189.921 17.552 189.511 17.552ZM194.016 23.0256C193.887 23.4715 193.694 23.888 193.435 24.2752C193.189 24.6507 192.878 24.9792 192.503 25.2608C192.139 25.5424 191.711 25.7653 191.218 25.9296C190.725 26.0821 190.179 26.1584 189.581 26.1584C188.889 26.1584 188.249 26.0411 187.663 25.8064C187.088 25.5717 186.589 25.2373 186.167 24.8032C185.744 24.3691 185.41 23.8469 185.163 23.2368C184.929 22.6149 184.811 21.9227 184.811 21.16C184.811 20.3973 184.929 19.7109 185.163 19.1008C185.398 18.4907 185.721 17.9685 186.131 17.5344C186.554 17.1003 187.058 16.7717 187.645 16.5488C188.232 16.3141 188.877 16.1968 189.581 16.1968C190.285 16.1968 190.919 16.3141 191.482 16.5488C192.057 16.7835 192.544 17.1061 192.943 17.5168C193.353 17.9275 193.664 18.4144 193.875 18.9776C194.098 19.5408 194.21 20.1509 194.21 20.808C194.21 20.984 194.204 21.1483 194.192 21.3008C194.192 21.4533 194.181 21.6117 194.157 21.776H186.448C186.483 22.2688 186.589 22.7029 186.765 23.0784C186.941 23.4539 187.17 23.7707 187.451 24.0288C187.733 24.2752 188.056 24.4688 188.419 24.6096C188.783 24.7387 189.17 24.8032 189.581 24.8032C190.309 24.8032 190.895 24.6389 191.341 24.3104C191.799 23.9819 192.115 23.5536 192.291 23.0256H194.016ZM200.425 17.552C200.038 17.552 199.668 17.6165 199.316 17.7456C198.964 17.8747 198.653 18.0624 198.383 18.3088C198.113 18.5552 197.89 18.8603 197.714 19.224C197.538 19.5877 197.427 20.0043 197.38 20.4736H203.47C203.47 20.0043 203.387 19.5877 203.223 19.224C203.071 18.8603 202.854 18.5552 202.572 18.3088C202.29 18.0624 201.962 17.8747 201.586 17.7456C201.223 17.6165 200.835 17.552 200.425 17.552ZM204.93 23.0256C204.801 23.4715 204.608 23.888 204.35 24.2752C204.103 24.6507 203.792 24.9792 203.417 25.2608C203.053 25.5424 202.625 25.7653 202.132 25.9296C201.639 26.0821 201.094 26.1584 200.495 26.1584C199.803 26.1584 199.163 26.0411 198.577 25.8064C198.002 25.5717 197.503 25.2373 197.081 24.8032C196.658 24.3691 196.324 23.8469 196.078 23.2368C195.843 22.6149 195.726 21.9227 195.726 21.16C195.726 20.3973 195.843 19.7109 196.078 19.1008C196.312 18.4907 196.635 17.9685 197.046 17.5344C197.468 17.1003 197.972 16.7717 198.559 16.5488C199.146 16.3141 199.791 16.1968 200.495 16.1968C201.199 16.1968 201.833 16.3141 202.396 16.5488C202.971 16.7835 203.458 17.1061 203.857 17.5168C204.267 17.9275 204.578 18.4144 204.79 18.9776C205.012 19.5408 205.124 20.1509 205.124 20.808C205.124 20.984 205.118 21.1483 205.106 21.3008C205.106 21.4533 205.095 21.6117 205.071 21.776H197.362C197.398 22.2688 197.503 22.7029 197.679 23.0784C197.855 23.4539 198.084 23.7707 198.366 24.0288C198.647 24.2752 198.97 24.4688 199.334 24.6096C199.697 24.7387 200.084 24.8032 200.495 24.8032C201.223 24.8032 201.809 24.6389 202.255 24.3104C202.713 23.9819 203.03 23.5536 203.206 23.0256H204.93ZM208.84 26H207.238V16.3552H208.84V17.9216C209.109 17.3819 209.503 16.9595 210.019 16.6544C210.535 16.3376 211.18 16.1792 211.955 16.1792V17.8336H211.532C211.145 17.8336 210.787 17.8805 210.459 17.9744C210.13 18.0683 209.843 18.2325 209.596 18.4672C209.362 18.6901 209.174 18.9893 209.033 19.3648C208.904 19.7285 208.84 20.192 208.84 20.7552V26ZM220.738 23.3776C220.738 23.7765 220.656 24.1461 220.492 24.4864C220.327 24.8267 220.087 25.12 219.77 25.3664C219.465 25.6128 219.095 25.8064 218.661 25.9472C218.227 26.088 217.746 26.1584 217.218 26.1584C216.655 26.1584 216.139 26.088 215.669 25.9472C215.2 25.7947 214.789 25.5893 214.437 25.3312C214.097 25.0613 213.821 24.7445 213.61 24.3808C213.411 24.0171 213.299 23.6123 213.276 23.1664H214.93C214.977 23.6357 215.194 24.0288 215.581 24.3456C215.98 24.6507 216.52 24.8032 217.2 24.8032C217.834 24.8032 218.321 24.6683 218.661 24.3984C219.002 24.1168 219.172 23.7765 219.172 23.3776C219.172 23.0256 219.031 22.7499 218.749 22.5504C218.468 22.3509 218.116 22.1867 217.693 22.0576C217.271 21.9285 216.813 21.8053 216.32 21.688C215.828 21.5589 215.37 21.3888 214.948 21.1776C214.525 20.9547 214.173 20.6672 213.892 20.3152C213.61 19.9632 213.469 19.488 213.469 18.8896C213.469 18.5259 213.551 18.1797 213.716 17.8512C213.88 17.5227 214.115 17.2352 214.42 16.9888C214.736 16.7424 215.112 16.5488 215.546 16.408C215.98 16.2672 216.467 16.1968 217.007 16.1968C218.075 16.1968 218.931 16.4667 219.576 17.0064C220.234 17.5344 220.591 18.2736 220.65 19.224H219.048C219.013 18.7312 218.814 18.3323 218.45 18.0272C218.098 17.7104 217.599 17.552 216.954 17.552C216.356 17.552 215.892 17.6811 215.564 17.9392C215.235 18.1856 215.071 18.5024 215.071 18.8896C215.071 19.2651 215.206 19.5584 215.476 19.7696C215.757 19.9808 216.103 20.1568 216.514 20.2976C216.936 20.4384 217.388 20.5733 217.869 20.7024C218.362 20.8197 218.82 20.984 219.242 21.1952C219.664 21.3947 220.016 21.6645 220.298 22.0048C220.58 22.3451 220.726 22.8027 220.738 23.3776Z" fill="#6E7171"/>
<defs>
<linearGradient id="paint0_linear_9937_14553" x1="0" y1="19.4183" x2="32.0747" y2="19.4183" gradientUnits="userSpaceOnUse">
<stop stop-color="#97C93D"/>
<stop offset="1" stop-color="#4FBA69"/>
</linearGradient>
</defs>
</svg>
